<?xml version="1.0" standalone="no"?>
<!DOCTYPE svg PUBLIC "-//W3C//DTD SVG 20010904//EN"
 "http://www.w3.org/TR/2001/REC-SVG-20010904/DTD/svg10.dtd">
<svg version="1.0" xmlns="http://www.w3.org/2000/svg"
 width="640.000000pt" height="640.000000pt" viewBox="0 0 640.000000 640.000000"
 preserveAspectRatio="xMidYMid meet">

<g transform="translate(0.000000,640.000000) scale(0.100000,-0.100000)"
fill="#A70E13" stroke="none">
<path d="M2935 6390 c-573 -53 -1124 -253 -1575 -573 -294 -208 -566 -479
-767 -763 -434 -612 -643 -1367 -582 -2101 92 -1120 746 -2099 1740 -2603 990
-503 2152 -460 3104 113 369 222 707 537 962 897 222 313 392 687 487 1070
313 1264 -168 2589 -1220 3356 -431 314 -937 515 -1484 589 -138 19 -526 27
-665 15z m-1407 -1566 l22 -6 0 -324 0 -324 55 0 55 0 0 292 0 293 34 -35 c84
-84 146 -235 166 -400 30 -240 -64 -518 -211 -628 l-49 -36 0 -991 c0 -1106 4
-1038 -70 -1077 -64 -33 -136 -14 -177 49 -17 26 -18 82 -20 1026 l-3 999 -38
28 c-208 150 -284 560 -160 858 28 69 109 192 125 192 5 0 7 -128 5 -285 l-3
-285 61 0 60 0 0 324 0 325 23 4 c35 7 100 7 125 1z m3527 -24 c67 -32 143
-111 187 -196 158 -300 92 -751 -133 -914 l-39 -28 -2 -999 c-3 -943 -4 -1000
-21 -1026 -56 -86 -176 -88 -227 -4 -19 31 -20 58 -20 1028 l0 996 -42 29
c-132 92 -219 298 -221 529 -4 298 126 542 323 606 46 15 142 5 195 -21z
m-1615 -356 c477 -83 879 -432 1034 -895 82 -247 86 -531 11 -794 -34 -121
-130 -311 -209 -416 -120 -159 -300 -310 -472 -397 -86 -43 -249 -98 -352
-119 -119 -23 -365 -23 -484 0 -537 106 -944 505 -1064 1042 -25 111 -30 350
-10 475 78 491 431 905 906 1060 206 67 421 82 640 44z"/>
</g>
</svg>
